<svg xmlns="http://www.w3.org/2000/svg" version="1.1" xmlns:xlink="http://www.w3.org/1999/xlink" width="1000" height="1000"><g clip-path="url(#SvgjsClipPath1026)"><rect width="1000" height="1000" fill="#ffffff"></rect><g transform="matrix(1.8018018018018018,0,0,1.8018018018018018,0,0)"><svg xmlns="http://www.w3.org/2000/svg" version="1.1" xmlns:xlink="http://www.w3.org/1999/xlink" width="555" height="555"><svg width="555" height="555" viewBox="0 0 555 555" fill="none" xmlns="http://www.w3.org/2000/svg">
<path d="M0 16C0 7.16343 7.16344 0 16 0H539C547.837 0 555 7.16344 555 16V539C555 547.837 547.837 555 539 555H16C7.16343 555 0 547.837 0 539V16Z" fill="white"></path>
<circle cx="277.5" cy="323.5" r="161" fill="#DC6803"></circle>
<rect x="244.5" y="267.5" width="135" height="65" fill="#535862"></rect>
<rect x="310.5" y="70.5" width="262" height="66" transform="rotate(90 310.5 70.5)" fill="#181D27"></rect>
</svg></svg></g></g><defs><clipPath id="SvgjsClipPath1026"><rect width="1000" height="1000" x="0" y="0" rx="350" ry="350"></rect></clipPath></defs></svg>